<?xml version="1.0" encoding="UTF-8" standalone="no"?>
<!-- Generator: visioncortex VTracer -->

<svg
   id="svg"
   version="1.1"
   style="display: block;"
   viewBox="0 0 267 267"
   sodipodi:docname="llxstore.svg"
   inkscape:version="1.3 (1:1.3+202307231459+0e150ed6c4)"
   xmlns:inkscape="http://www.inkscape.org/namespaces/inkscape"
   xmlns:sodipodi="http://sodipodi.sourceforge.net/DTD/sodipodi-0.dtd"
   xmlns="http://www.w3.org/2000/svg"
   xmlns:svg="http://www.w3.org/2000/svg">
  <defs
     id="defs2" />
  <sodipodi:namedview
     id="namedview2"
     pagecolor="#ffffff"
     bordercolor="#000000"
     borderopacity="0.25"
     inkscape:showpageshadow="2"
     inkscape:pageopacity="0.0"
     inkscape:pagecheckerboard="true"
     inkscape:deskcolor="#d1d1d1"
     inkscape:zoom="3.0074906"
     inkscape:cx="133.33375"
     inkscape:cy="133.5"
     inkscape:window-width="1920"
     inkscape:window-height="1007"
     inkscape:window-x="0"
     inkscape:window-y="0"
     inkscape:window-maximized="1"
     inkscape:current-layer="svg" />
  <path
     d="M0 0 C3.22874535 1.07624845 3.66265782 1.52211051 5.56640625 4.140625 C6.04754883 4.79353516 6.52869141 5.44644531 7.02441406 6.11914062 C7.53198242 6.82232422 8.03955078 7.52550781 8.5625 8.25 C9.6307613 9.7036758 10.69978454 11.15679195 11.76953125 12.609375 C12.30658691 13.34220703 12.84364258 14.07503906 13.39697266 14.83007812 C15.8036059 18.08779306 18.2720999 21.29634185 20.75 24.5 C21.17998291 25.05719727 21.60996582 25.61439453 22.05297852 26.18847656 C23.03438734 27.45970419 24.01703542 28.72997497 25 30 C25.556875 29.14277344 26.11375 28.28554687 26.6875 27.40234375 C34.7034473 15.28360672 43.93946287 6.36527891 58.421875 2.32421875 C72.28908327 0.58031226 85.26441469 1.82040528 96.84765625 10.26171875 C110.00345471 20.88663765 116.51540716 34.13761436 118.3125 50.91796875 C118.97631753 66.28949342 113.52939095 79.62511552 103.75 91.25 C95.40939278 100.11884568 84.76769068 105.09475119 72.6328125 106.34765625 C65.61325175 106.53759731 59.55773469 105.48690616 53 103 C52.85304687 103.65484375 52.70609375 104.3096875 52.5546875 104.984375 C49.58823339 117.05477447 44.22319417 126.72255016 36 136 C35.48050781 136.61359375 34.96101562 137.2271875 34.42578125 137.859375 C23.06802243 150.33288343 4.91524847 158.55051639 -11.83984375 159.3359375 C-37.67645152 159.7970805 -61.53875738 152.33521063 -80.65625 134.3671875 C-93.81164707 121.08023645 -102.40224259 103.23509124 -103.09765625 84.34765625 C-103.06510417 82.23177083 -103.03255208 80.11588542 -103 78 C-97.39 78.33 -91.78 78.66 -86 79 C-85.67 77.02 -85.34 75.04 -85 73 C-81.80748274 58.3676292 -74.67674878 47.29713104 -64 37 C-63.36707031 36.33613281 -62.73414063 35.67226562 -62.08203125 34.98828125 C-51.35760323 24.45324711 -35.56608544 19.65523698 -21 18 C-21.5775 17.30132812 -22.155 16.60265625 -22.75 15.8828125 C-23.4925 14.97273438 -24.235 14.06265625 -25 13.125 C-25.7425 12.22007813 -26.485 11.31515625 -27.25 10.3828125 C-29 8 -29 8 -29 6 C-22.35831389 8.11644743 -15.89538217 10.5673908 -9.4375 13.1875 C-8.52419922 13.55552734 -7.61089844 13.92355469 -6.66992188 14.30273438 C-4.44564875 15.19943087 -2.22268496 16.09937405 0 17 C0 11.39 0 5.78 0 0 Z "
     transform="translate(130,54)"
     style="fill:#00bfad;fill-opacity:1"
     id="path1" />
  <path
     d="M0 0 C2.3125 0.5625 2.3125 0.5625 5 2 C7.7052016 6.75742351 8.42613306 10.56680349 8 16 C7.67 16.66 7.34 17.32 7 18 C4.6875 18.25 4.6875 18.25 2 18 C-1.33449923 14.54641151 -2.14884758 11.12990419 -2.1875 6.4375 C-2.20167969 5.65246094 -2.21585938 4.86742188 -2.23046875 4.05859375 C-2 2 -2 2 0 0 Z "
     transform="translate(21,109)"
     style="fill:#00bfad;fill-opacity:1"
     id="path2" />
</svg>
