<?xml version="1.0" encoding="UTF-8" standalone="no"?>
<!-- Created with Inkscape (http://www.inkscape.org/) -->

<svg
   xmlns:dc="http://purl.org/dc/elements/1.1/"
   xmlns:cc="http://creativecommons.org/ns#"
   xmlns:rdf="http://www.w3.org/1999/02/22-rdf-syntax-ns#"
   xmlns:svg="http://www.w3.org/2000/svg"
   xmlns="http://www.w3.org/2000/svg"
   xmlns:xlink="http://www.w3.org/1999/xlink"
   xmlns:sodipodi="http://sodipodi.sourceforge.net/DTD/sodipodi-0.dtd"
   xmlns:inkscape="http://www.inkscape.org/namespaces/inkscape"
   width="48"
   height="48"
   viewBox="0 0 12.7 12.7"
   version="1.1"
   id="svg8"
   inkscape:version="0.92.3 (2405546, 2018-03-11)"
   sodipodi:docname="lliurex-store.svg"
   inkscape:export-filename="/home/quique/baikonur.png"
   inkscape:export-xdpi="96"
   inkscape:export-ydpi="96">
  <defs
     id="defs2">
    <linearGradient
       inkscape:collect="always"
       id="linearGradient903">
      <stop
         style="stop-color:#f3f3f3;stop-opacity:1;"
         offset="0"
         id="stop899" />
      <stop
         style="stop-color:#d6d8db;stop-opacity:1"
         offset="1"
         id="stop901" />
    </linearGradient>
    <linearGradient
       gradientUnits="userSpaceOnUse"
       x2="407.69"
       y2="504.13"
       x1="407.63"
       y1="543.77"
       id="a"
       gradientTransform="matrix(0.26458333,0,0,0.26458333,-87.719561,162.67812)">
      <stop
         id="stop818"
         stop-color="#c6cdd1" />
      <stop
         id="stop820"
         stop-color="#e0e5e7"
         offset="1" />
    </linearGradient>
    <linearGradient
       gradientUnits="userSpaceOnUse"
       x2="401.92"
       y2="532.44"
       x1="401.58"
       y1="513.81"
       id="b"
       gradientTransform="matrix(0.26458333,0,0,0.26458333,-101.75121,152.06084)">
      <stop
         id="stop823"
         stop-color="#9559b6" />
      <stop
         id="stop825"
         stop-color="#8e44ad"
         offset="1" />
    </linearGradient>
    <linearGradient
       gradientUnits="userSpaceOnUse"
       x2="417.53"
       y2="533.46"
       x1="417.87"
       y1="516.47"
       id="c"
       gradientTransform="matrix(0.26458333,0,0,0.26458333,-101.75121,152.06084)">
      <stop
         id="stop828"
         stop-color="#1d99f3" />
      <stop
         id="stop830"
         stop-color="#2972a7"
         offset="1" />
    </linearGradient>
    <linearGradient
       gradientUnits="userSpaceOnUse"
       x2="38.26"
       y2="35.796"
       x1="29.439"
       y1="26.03"
       id="d"
       gradientTransform="matrix(0.26458333,0,0,0.26458333,5.5393146,283.75389)">
      <stop
         id="stop833"
         stop-color="#292c2f" />
      <stop
         id="stop835"
         stop-opacity="0"
         stop-color="#292c2f"
         offset="1" />
    </linearGradient>
    <linearGradient
       gradientUnits="userSpaceOnUse"
       x2="407.69"
       y2="504.13"
       x1="407.63"
       y1="543.77002"
       id="a-1"
       gradientTransform="matrix(0.26458333,0,0,0.26458333,-98.129151,158.23851)"
       spreadMethod="pad">
      <stop
         id="stop818-2"
         stop-color="#c6cdd1" />
      <stop
         id="stop820-7"
         stop-color="#e0e5e7"
         offset="1" />
    </linearGradient>
    <linearGradient
       inkscape:collect="always"
       xlink:href="#linearGradient903"
       id="linearGradient905"
       x1="4.455049"
       y1="289.77368"
       x2="9.88062"
       y2="295.25772"
       gradientUnits="userSpaceOnUse" />
  </defs>
  <sodipodi:namedview
     id="base"
     pagecolor="#ffffff"
     bordercolor="#666666"
     borderopacity="1.0"
     inkscape:pageopacity="0.0"
     inkscape:pageshadow="2"
     inkscape:zoom="5.6568545"
     inkscape:cx="-40.479651"
     inkscape:cy="53.073844"
     inkscape:document-units="px"
     inkscape:current-layer="layer1"
     showgrid="false"
     units="px"
     inkscape:showpageshadow="false"
     showguides="true"
     inkscape:guide-bbox="true"
     inkscape:window-width="1920"
     inkscape:window-height="1009"
     inkscape:window-x="0"
     inkscape:window-y="0"
     inkscape:window-maximized="1"
     inkscape:snap-global="false">
    <sodipodi:guide
       position="6.35,11.641667"
       orientation="0,1"
       id="guide815"
       inkscape:locked="false"
       inkscape:label=""
       inkscape:color="rgb(0,0,255)" />
    <sodipodi:guide
       position="6.35,1.0583333"
       orientation="0,1"
       id="guide817"
       inkscape:locked="false"
       inkscape:label=""
       inkscape:color="rgb(0,0,255)" />
    <sodipodi:guide
       position="1.0583333,6.35"
       orientation="1,0"
       id="guide819"
       inkscape:locked="false"
       inkscape:label=""
       inkscape:color="rgb(0,0,255)" />
    <sodipodi:guide
       position="11.641667,6.35"
       orientation="1,0"
       id="guide821"
       inkscape:locked="false"
       inkscape:label=""
       inkscape:color="rgb(0,0,255)" />
    <sodipodi:guide
       position="4.8964611,2.0053566"
       orientation="0.70710678,0.70710678"
       id="guide886"
       inkscape:locked="false"
       inkscape:label=""
       inkscape:color="rgb(0,0,255)" />
  </sodipodi:namedview>
  <metadata
     id="metadata5">
    <rdf:RDF>
      <cc:Work
         rdf:about="">
        <dc:format>image/svg+xml</dc:format>
        <dc:type
           rdf:resource="http://purl.org/dc/dcmitype/StillImage" />
        <dc:title />
      </cc:Work>
    </rdf:RDF>
  </metadata>
  <g
     inkscape:label="Capa 1"
     inkscape:groupmode="layer"
     id="layer1"
     transform="translate(0,-284.29998)">
    <text
       id="text842"
       y="187.03612"
       x="91.627457"
       style="font-size:3.17499995px;font-family:'Droid Sans';stroke-width:0.26458332" />
    <path
       style="opacity:0.4;fill:#000000;fill-opacity:1;fill-rule:evenodd;stroke:none;stroke-width:0.02589256px;stroke-linecap:butt;stroke-linejoin:miter;stroke-opacity:1"
       d="m 6.3438276,285.64075 a 2.6447604,2.6447604 0 0 0 -2.5980109,2.15872 c -0.4233841,-0.0389 -0.8416285,-0.088 -1.2473613,-0.15175 l -0.5501843,8.12851 h 8.8034529 l -0.550315,-8.12851 c -0.3835696,0.0532 -0.8081376,0.10083 -1.2613605,0.14057 a 2.6447604,2.6447604 0 0 0 -2.5962209,-2.14754 z m 0,0.094 a 2.5507301,2.5507301 0 0 1 2.50101,2.06121 c -1.4956146,0.12617 -3.2932268,0.16243 -5.0053564,0.0121 a 2.5507301,2.5507301 0 0 1 2.5043465,-2.07327 z"
       id="path4503-0-2"
       inkscape:connector-curvature="0" />
    <path
       style="opacity:0.2;fill:#000000;fill-opacity:1;fill-rule:evenodd;stroke:none;stroke-width:0.02589256px;stroke-linecap:butt;stroke-linejoin:miter;stroke-opacity:1"
       d="m 6.3438276,285.73379 a 2.6447604,2.6447604 0 0 0 -2.5980109,2.15871 c -0.4233841,-0.0389 -0.8416285,-0.088 -1.2473613,-0.15174 l -0.5501843,8.12851 h 8.8034529 l -0.550315,-8.12851 c -0.3835696,0.0532 -0.8081376,0.10082 -1.2613605,0.14056 a 2.6447604,2.6447604 0 0 0 -2.5962209,-2.14753 z m 0,0.094 a 2.5507301,2.5507301 0 0 1 2.50101,2.06118 c -1.4956146,0.12619 -3.2932268,0.16244 -5.0053564,0.0121 a 2.5507301,2.5507301 0 0 1 2.5043465,-2.07327 z"
       id="path4503-0"
       inkscape:connector-curvature="0" />
    <path
       style="fill:url(#linearGradient905);fill-opacity:1;fill-rule:evenodd;stroke:none;stroke-width:0.02589256px;stroke-linecap:butt;stroke-linejoin:miter;stroke-opacity:1"
       d="m 2.4984806,287.5369 -0.5502164,8.12851 h 8.8034708 l -0.550216,-8.12851 c -1.9985613,0.27708 -5.0947874,0.40933 -7.7030384,0 z"
       id="path4503"
       inkscape:connector-curvature="0"
       sodipodi:nodetypes="ccccc" />
    <g
       id="g5308"
       transform="matrix(0.16100911,0,0,0.16100911,-62.015463,323.54443)"
       style="fill:#4d4d4d">
      <circle
         r="2.4039876"
         cy="-219.47789"
         cx="408.43533"
         id="path4632"
         style="color:#000000;clip-rule:nonzero;display:inline;overflow:visible;visibility:visible;opacity:1;isolation:auto;mix-blend-mode:normal;color-interpolation:sRGB;color-interpolation-filters:linearRGB;solid-color:#000000;solid-opacity:1;fill:#4d4d4d;fill-opacity:1;fill-rule:nonzero;stroke:none;stroke-width:0.24725468;stroke-linecap:butt;stroke-linejoin:round;stroke-miterlimit:4;stroke-dasharray:none;stroke-dashoffset:0;stroke-opacity:1;color-rendering:auto;image-rendering:auto;shape-rendering:auto;text-rendering:auto;enable-background:accumulate" />
      <circle
         r="2.4039876"
         cy="-219.47789"
         cx="440.77701"
         id="path4632-1"
         style="color:#000000;clip-rule:nonzero;display:inline;overflow:visible;visibility:visible;opacity:1;isolation:auto;mix-blend-mode:normal;color-interpolation:sRGB;color-interpolation-filters:linearRGB;solid-color:#000000;solid-opacity:1;fill:#4d4d4d;fill-opacity:1;fill-rule:nonzero;stroke:none;stroke-width:0.24725468;stroke-linecap:butt;stroke-linejoin:round;stroke-miterlimit:4;stroke-dasharray:none;stroke-dashoffset:0;stroke-opacity:1;color-rendering:auto;image-rendering:auto;shape-rendering:auto;text-rendering:auto;enable-background:accumulate" />
      <path
         inkscape:connector-curvature="0"
         id="path4682-9"
         d="m 424.56811,-236.10174 a 16.426154,16.426154 0 0 0 -16.42622,16.42579 h 0.58393 a 15.842148,15.842148 0 0 1 15.84229,-15.84186 15.842148,15.842148 0 0 1 15.84188,15.84186 h 0.58435 a 16.426154,16.426154 0 0 0 -16.42623,-16.42579 z"
         style="color:#000000;clip-rule:nonzero;display:inline;overflow:visible;visibility:visible;opacity:1;isolation:auto;mix-blend-mode:normal;color-interpolation:sRGB;color-interpolation-filters:linearRGB;solid-color:#000000;solid-opacity:1;fill:#4d4d4d;fill-opacity:1;fill-rule:nonzero;stroke:#000000;stroke-width:1.86908126;stroke-linecap:round;stroke-linejoin:round;stroke-miterlimit:4;stroke-dasharray:none;stroke-dashoffset:0;stroke-opacity:1;color-rendering:auto;image-rendering:auto;shape-rendering:auto;text-rendering:auto;enable-background:accumulate" />
    </g>
    <path
       style="color:#000000;display:inline;overflow:visible;visibility:visible;opacity:1;fill:#000000;fill-opacity:0.50196078;fill-rule:nonzero;stroke:none;stroke-width:0.35404223;stroke-linecap:square;stroke-linejoin:miter;stroke-miterlimit:4;stroke-dasharray:none;stroke-opacity:1;marker:none;enable-background:accumulate"
       d="m 6.2855893,289.98197 c 0.00775,0.16392 0.031314,0.32787 0.011436,0.49179 l -0.812041,-0.3317 c 0.1033619,0.11285 0.1952584,0.22579 0.2637168,0.33869 -0.9056303,0.0369 -1.6615708,0.71665 -1.7882052,1.62145 -0.090221,0.0185 -0.206424,0.0233 -0.4674467,-0.0154 0.056783,1.62862 1.4523579,2.15959 2.3313108,2.16069 0.8438949,-0.0198 1.6799409,-0.64246 1.8498038,-1.5302 0.1453843,0.0594 0.2995345,0.0901 0.4550521,0.0907 0.7146247,0 1.2939414,-0.6228 1.2939455,-1.391 0,-0.76833 -0.5793167,-1.39108 -1.2939455,-1.39108 -0.5063668,0 -0.965422,0.31832 -1.175632,0.81248 l -0.6680023,-0.85668 z m -2.9368818,1.4929 c -0.00353,0 -0.00726,0 -0.010784,0.004 -0.058013,0.0154 -0.078266,0.12925 -0.045233,0.25438 0.033029,0.12525 0.1068441,0.21431 0.1648667,0.199 0.058019,-0.0149 0.078277,-0.12921 0.045247,-0.25442 -0.030742,-0.11641 -0.097331,-0.20314 -0.1540878,-0.20059 z"
       id="path4136-4-3"
       inkscape:connector-curvature="0"
       sodipodi:nodetypes="cccccccccsscccccccccc" />
    <path
       style="color:#000000;display:inline;overflow:visible;visibility:visible;opacity:1;fill:#4d4d4d;fill-opacity:1;fill-rule:nonzero;stroke:none;stroke-width:0.35404223;stroke-linecap:square;stroke-linejoin:miter;stroke-miterlimit:4;stroke-dasharray:none;stroke-opacity:1;marker:none;enable-background:accumulate"
       d="m 6.2855893,289.88676 c 0.00775,0.16391 0.031314,0.32787 0.011436,0.49178 l -0.812041,-0.33169 c 0.1033619,0.11285 0.1952584,0.22579 0.2637168,0.33869 -0.9056303,0.0369 -1.6615708,0.71665 -1.7882052,1.62145 -0.090221,0.0185 -0.206424,0.0233 -0.4674467,-0.0154 0.056783,1.62862 1.4523579,2.15959 2.3313108,2.16069 0.8438949,-0.0198 1.6799409,-0.64246 1.8498038,-1.5302 0.1453843,0.0594 0.2995345,0.0901 0.4550521,0.0907 0.7146247,0 1.2939414,-0.6228 1.2939455,-1.391 0,-0.76833 -0.5793167,-1.39108 -1.2939455,-1.39108 -0.5063668,0 -0.965422,0.31832 -1.175632,0.81248 L 6.2855811,289.8865 Z m -2.9368818,1.4929 c -0.00353,0 -0.00726,0 -0.010784,0.004 -0.058013,0.0154 -0.078266,0.12926 -0.045233,0.25438 0.033029,0.12526 0.1068441,0.21432 0.1648667,0.19901 0.058019,-0.0149 0.078277,-0.12921 0.045247,-0.25442 -0.030742,-0.11642 -0.097331,-0.20314 -0.1540878,-0.20059 z"
       id="path4136-4"
       inkscape:connector-curvature="0"
       sodipodi:nodetypes="cccccccccsscccccccccc" />
  </g>
</svg>
