<?xml version="1.0" encoding="UTF-8" standalone="no"?>
<svg
   width="32"
   version="1.1"
   height="32"
   id="svg14"
   sodipodi:docname="application-vnd.lliurex.binary-package.svg"
   inkscape:version="1.2.2 (b0a8486541, 2022-12-01)"
   xmlns:inkscape="http://www.inkscape.org/namespaces/inkscape"
   xmlns:sodipodi="http://sodipodi.sourceforge.net/DTD/sodipodi-0.dtd"
   xmlns:xlink="http://www.w3.org/1999/xlink"
   xmlns="http://www.w3.org/2000/svg"
   xmlns:svg="http://www.w3.org/2000/svg">
  <sodipodi:namedview
     id="namedview16"
     pagecolor="#ffffff"
     bordercolor="#000000"
     borderopacity="0.25"
     inkscape:showpageshadow="2"
     inkscape:pageopacity="0.0"
     inkscape:pagecheckerboard="0"
     inkscape:deskcolor="#d1d1d1"
     showgrid="false"
     inkscape:zoom="23.21875"
     inkscape:cx="16"
     inkscape:cy="16"
     inkscape:window-width="1920"
     inkscape:window-height="1008"
     inkscape:window-x="0"
     inkscape:window-y="0"
     inkscape:window-maximized="1"
     inkscape:current-layer="layer1" />
  <defs
     id="defs5455">
    <linearGradient
       id="linearGradient6251"
       inkscape:collect="always">
      <stop
         id="stop6253"
         stop-color="#ffffff"
         stop-opacity="0" />
      <stop
         id="stop6255"
         offset="1"
         stop-color="#ffffff"
         stop-opacity="0.2" />
    </linearGradient>
    <linearGradient
       inkscape:collect="always"
       xlink:href="#linearGradient6251"
       id="linearGradient5849"
       gradientUnits="userSpaceOnUse"
       gradientTransform="matrix(0.48,0,0,0.40601922,362.65141,385.60546)"
       y1="394.54437"
       x2="0"
       y2="335.43387" />
    <filter
       inkscape:label="Evanescent"
       inkscape:menu="Blurs"
       inkscape:menu-tooltip="Blur the contents of objects, preserving the outline and adding progressive transparency at edges"
       style="color-interpolation-filters:sRGB;"
       id="filter1212"
       x="-0.39495235"
       y="-0.5690602"
       width="1.7899047"
       height="2.1381204">
      <feGaussianBlur
         result="result6"
         stdDeviation="3"
         in="SourceGraphic"
         id="feGaussianBlur1206" />
      <feColorMatrix
         values="1 0 0 0 0 0 1 0 0 0 0 0 1 0 0 0 0 0 1 0 "
         result="result7"
         in="SourceGraphic"
         id="feColorMatrix1208" />
      <feComposite
         operator="in"
         in="result6"
         in2="result7"
         id="feComposite1210" />
    </filter>
  </defs>
  <g
     inkscape:label="Capa 1"
     inkscape:groupmode="layer"
     id="layer1"
     transform="matrix(1 0 0 1 -384.57143 -515.798)">
    <rect
       y="521.79797"
       x="388.57144"
       height="23.999989"
       width="23.999989"
       id="rect5837"
       mix-blend-mode="normal"
       solid-color="#000000"
       color-interpolation-filters="linearRGB"
       color="#000000"
       image-rendering="auto"
       color-rendering="auto"
       isolation="auto"
       color-interpolation="sRGB"
       solid-opacity="1"
       fill="#e6506e"
       shape-rendering="auto"
       style="fill:#0000ff" />
    <rect
       width="24.00001"
       x="388.57144"
       y="544.79797"
       height="0.999974"
       id="rect5839"
       mix-blend-mode="normal"
       solid-color="#000000"
       opacity="0.25"
       color-interpolation-filters="linearRGB"
       color="#000000"
       image-rendering="auto"
       color-rendering="auto"
       isolation="auto"
       color-interpolation="sRGB"
       solid-opacity="1"
       shape-rendering="auto" />
    <rect
       width="23.999989"
       x="388.57144"
       y="521.79797"
       height="1.00003"
       id="rect5841"
       mix-blend-mode="normal"
       solid-color="#000000"
       opacity="0.5"
       color-interpolation-filters="linearRGB"
       color="#000000"
       image-rendering="auto"
       color-rendering="auto"
       isolation="auto"
       color-interpolation="sRGB"
       solid-opacity="1"
       fill="#ffffff"
       shape-rendering="auto" />
    <path
       inkscape:connector-curvature="0"
       d="m 404.57142,522.79803 0,1 1,0 0,-1 -1,0 z m 1,1 0,1 1,0 0,-1 -1,0 z m 0,1 -1,0 0,1 1,0 0,-1 z m 0,1 0,1 1,0 0,-1 -1,0 z m 0,1 -1,0 0,1 1,0 0,-1 z m 0,1 0,1 1,0 0,-1 -1,0 z m 0,1 -1,0 0,0.56054 0,1.43946 2,0 0,-1 -1,0 0,-1 z"
       id="path5843"
       mix-blend-mode="normal"
       solid-color="#000000"
       opacity="0.75"
       color-interpolation-filters="linearRGB"
       color="#000000"
       image-rendering="auto"
       color-rendering="auto"
       stroke-width="2"
       isolation="auto"
       stroke-linecap="square"
       color-interpolation="sRGB"
       solid-opacity="1"
       fill="#ffffff"
       shape-rendering="auto" />
    <path
       style="color:#000000;display:inline;overflow:visible;visibility:visible;fill:#ffffff;fill-opacity:0.74902;fill-rule:nonzero;stroke:none;stroke-width:1.05011;stroke-linecap:square;stroke-linejoin:miter;stroke-miterlimit:4;stroke-dasharray:none;stroke-opacity:1;marker:none;enable-background:accumulate;filter:url(#filter1212)"
       d="m 398.34149,531.41078 c 0.0228,0.48615 0.0929,0.97244 0.0337,1.45863 l -2.40855,-0.98382 c 0.30657,0.33472 0.57914,0.66971 0.78218,1.00459 -2.68614,0.10942 -4.92829,2.1256 -5.30392,4.80927 -0.26759,0.0549 -0.61225,0.0691 -1.38646,-0.0457 0.16843,4.83055 4.30777,6.40543 6.9148,6.40869 2.50304,-0.0588 4.9828,-1.90555 5.48661,-4.53863 0.43124,0.17619 0.88845,0.26724 1.34971,0.26902 2.11964,0 3.8379,-1.84724 3.83792,-4.12575 0,-2.27888 -1.71828,-4.12598 -3.83792,-4.12598 -1.50191,0 -2.86348,0.94415 -3.48699,2.40984 L 398.34125,531.41 Z m -8.71097,4.42797 c -0.0103,0 -0.0214,0 -0.0319,0.012 -0.17206,0.0457 -0.23214,0.38338 -0.13416,0.7545 0.098,0.37153 0.31693,0.63568 0.48903,0.59027 0.17209,-0.0443 0.23215,-0.38325 0.13417,-0.75463 -0.0912,-0.3453 -0.28868,-0.60252 -0.45703,-0.59495 z"
       id="path4136-4"
       inkscape:connector-curvature="0"
       sodipodi:nodetypes="cccccccccsscccccccccc" />
    <path
       style="color:#000000;display:inline;overflow:visible;visibility:visible;fill:#ffffff;fill-opacity:0.74902;fill-rule:nonzero;stroke:none;stroke-width:1.05011;stroke-linecap:square;stroke-linejoin:miter;stroke-miterlimit:4;stroke-dasharray:none;stroke-opacity:1;marker:none;enable-background:accumulate"
       d="m 398.68049,531.67178 c 0.0228,0.48615 0.0929,0.97244 0.0337,1.45863 l -2.40855,-0.98382 c 0.30657,0.33472 0.57914,0.66971 0.78218,1.00459 -2.68614,0.10942 -4.92829,2.1256 -5.30392,4.80927 -0.26759,0.0549 -0.61225,0.0691 -1.38646,-0.0457 0.16843,4.83055 4.30777,6.40543 6.9148,6.40869 2.50304,-0.0588 4.9828,-1.90555 5.48661,-4.53863 0.43124,0.17619 0.88845,0.26724 1.34971,0.26902 2.11964,0 3.8379,-1.84724 3.83792,-4.12575 0,-2.27888 -1.71828,-4.12598 -3.83792,-4.12598 -1.50191,0 -2.86348,0.94415 -3.48699,2.40984 l -1.98132,-2.54094 z m -8.71097,4.42797 c -0.0103,0 -0.0214,0 -0.0319,0.012 -0.17206,0.0457 -0.23214,0.38338 -0.13416,0.7545 0.098,0.37153 0.31693,0.63568 0.48903,0.59027 0.17209,-0.0443 0.23215,-0.38325 0.13417,-0.75463 -0.0912,-0.3453 -0.28868,-0.60252 -0.45703,-0.59495 z"
       id="path4136-4-6"
       inkscape:connector-curvature="0"
       sodipodi:nodetypes="cccccccccsscccccccccc" />
    <rect
       id="rect5847"
       width="24"
       height="24"
       x="388.57144"
       y="521.79797"
       mix-blend-mode="normal"
       solid-color="#000000"
       color-interpolation-filters="linearRGB"
       color="#000000"
       image-rendering="auto"
       color-rendering="auto"
       isolation="auto"
       color-interpolation="sRGB"
       solid-opacity="1"
       fill="url(#linearGradient5849)"
       shape-rendering="auto"
       style="fill:url(#linearGradient5849)" />
  </g>
</svg>
