<?xml version="1.0" encoding="UTF-8" standalone="no"?>
<!-- Created with Inkscape (http://www.inkscape.org/) -->

<svg
   width="203.399mm"
   height="210.35976mm"
   viewBox="0 0 203.399 210.35976"
   version="1.1"
   id="svg1"
   xml:space="preserve"
   inkscape:version="1.2.2 (b0a8486541, 2022-12-01)"
   sodipodi:docname="appsedu_refresh.svg"
   xmlns:inkscape="http://www.inkscape.org/namespaces/inkscape"
   xmlns:sodipodi="http://sodipodi.sourceforge.net/DTD/sodipodi-0.dtd"
   xmlns="http://www.w3.org/2000/svg"
   xmlns:svg="http://www.w3.org/2000/svg"><sodipodi:namedview
     id="namedview1"
     pagecolor="#ffffff"
     bordercolor="#000000"
     borderopacity="0.25"
     inkscape:showpageshadow="2"
     inkscape:pageopacity="0.0"
     inkscape:pagecheckerboard="0"
     inkscape:deskcolor="#d1d1d1"
     inkscape:document-units="mm"
     inkscape:zoom="0.11692446"
     inkscape:cx="1193.078"
     inkscape:cy="2198.0004"
     inkscape:window-width="1920"
     inkscape:window-height="1049"
     inkscape:window-x="0"
     inkscape:window-y="0"
     inkscape:window-maximized="1"
     inkscape:current-layer="layer1"
     showgrid="false" /><defs
     id="defs1" /><g
     inkscape:label="Capa 1"
     inkscape:groupmode="layer"
     id="layer1"
     transform="translate(-2.8988333,-36.871147)"><ellipse
       style="fill:#e7e7e7;fill-opacity:1;stroke-width:0.289336"
       id="path1"
       cx="104.59834"
       cy="138.57077"
       rx="101.6995"
       ry="101.69962" /><path
       id="rect2-6-3"
       style="fill:#3dada5;fill-opacity:1;stroke-width:0.315978"
       d="m 62.29709,39.99151 99.02655,20.491211 c 12.4848,2.583437 9.01896,6.745157 8.99299,18.987789 l -0.27958,131.76086 c -0.0255,12.08991 0.43304,12.74385 -8.24833,14.55772 L 62.1407,246.60934 c -12.47693,2.6069 -17.71126,-3.0786 -17.77434,-15.32109 L 43.46562,56.455989 C 43.36602,37.127651 63.2968,40.198376 62.29709,39.99151 Z"
       sodipodi:nodetypes="csssssssc" /><path
       id="rect2-6"
       style="fill:#287069;fill-opacity:1;stroke-width:0.310629"
       d="m 62.89424,40.637487 99.31693,18.909407 c 12.03937,2.292238 8.65655,6.791626 8.63162,19.118602 l -0.26834,132.668584 c -0.0245,12.1732 0.4539,13.03562 -7.91689,14.65802 L 61.53554,245.59124 C 49.50498,247.92296 50.53545,231.60701 50.53545,219.28001 V 66.570538 c 0,-12.327003 0.31937,-28.22529 12.35879,-25.933051 z"
       sodipodi:nodetypes="sssssssss" /><path
       id="rect2"
       style="fill:#f9f9f9;stroke-width:0.264583"
       d="m 70.76672,54.356268 84.84921,16.058009 c 10.28559,1.946586 7.39554,5.7675 7.37424,16.235661 l -0.22924,112.663002 c -0.021,10.33757 0.41938,11.24079 -6.76364,12.4477 L 70.98925,226.04389 C 60.66577,227.77846 60.20826,216.52886 60.20826,206.06068 V 76.378809 c 0,-10.468183 0.27285,-23.969128 10.55846,-22.022541 z"
       sodipodi:nodetypes="sssssssss" /><path
       style="fill:#d3a13c;fill-opacity:1;stroke:#ffffff;stroke-width:2.865;stroke-linecap:round;stroke-dasharray:none;stroke-opacity:1"
       d="m 97.53714,53.669988 31.05723,5.877375"
       id="path3" /><ellipse
       style="fill:#ffffff;fill-opacity:1;stroke:none;stroke-width:8.54138;stroke-linecap:round;stroke-dasharray:none;stroke-opacity:1"
       id="path4"
       cx="117.32658"
       cy="226.60413"
       rx="4.744"
       ry="6.1960001" /><path
       id="path2404"
       d="M 157.90805,76.802088 142.99601,95.06838 c -8.76535,-9.202529 -20.08514,-14.848066 -32.52646,-14.848066 -27.726734,0 -50.229588,27.564576 -50.229588,61.528206 0,33.96363 22.502854,61.52832 50.229588,61.52832 24.29438,0 44.62062,-21.15719 49.26964,-49.24316 0,0 -0.0864,2.1e-4 -0.0872,0 0.11156,-0.66735 0.17441,-1.322 0.17441,-2.02959 0,-5.6606 -3.75047,-10.25471 -8.3716,-10.25471 -4.00497,0 -7.28747,3.51327 -8.10985,8.11831 -0.0394,0.22079 -0.1468,0.41509 -0.1744,0.64093 -3.28223,18.43217 -16.67454,32.25964 -32.70226,32.25964 -18.484487,0 -33.48639,-18.37646 -33.48639,-41.01888 0,-22.64243 15.001903,-41.01888 33.48639,-41.01888 7.82885,0 14.97373,3.33374 20.66725,8.86623 l -15.08618,18.47969 h 41.85799 V 76.802942 Z"
       style="fill:#d3a13c;fill-opacity:1;fill-rule:evenodd;stroke-width:3.08848" /></g></svg>
