<?xml version="1.0" encoding="UTF-8" standalone="no"?>
<!-- Created with Inkscape (http://www.inkscape.org/) -->

<svg
   width="203.399mm"
   height="210.35976mm"
   viewBox="0 0 203.399 210.35976"
   version="1.1"
   id="svg1"
   xml:space="preserve"
   inkscape:version="1.3 (1:1.3+202307231459+0e150ed6c4)"
   sodipodi:docname="appsedu.svg"
   xmlns:inkscape="http://www.inkscape.org/namespaces/inkscape"
   xmlns:sodipodi="http://sodipodi.sourceforge.net/DTD/sodipodi-0.dtd"
   xmlns="http://www.w3.org/2000/svg"
   xmlns:svg="http://www.w3.org/2000/svg"><sodipodi:namedview
     id="namedview1"
     pagecolor="#ffffff"
     bordercolor="#000000"
     borderopacity="0.25"
     inkscape:showpageshadow="2"
     inkscape:pageopacity="0.0"
     inkscape:pagecheckerboard="0"
     inkscape:deskcolor="#d1d1d1"
     inkscape:document-units="mm"
     inkscape:zoom="0.16535615"
     inkscape:cx="1091.5832"
     inkscape:cy="783.15805"
     inkscape:window-width="1280"
     inkscape:window-height="771"
     inkscape:window-x="0"
     inkscape:window-y="0"
     inkscape:window-maximized="1"
     inkscape:current-layer="layer1" /><defs
     id="defs1" /><g
     inkscape:label="Capa 1"
     inkscape:groupmode="layer"
     id="layer1"
     transform="translate(-2.8988333,-36.871147)"><g
       id="g4"
       transform="translate(259.29177,8.9958338)"><ellipse
         style="fill:#e7e7e7;fill-opacity:1;stroke-width:0.289336"
         id="path1"
         cx="-154.69344"
         cy="129.57494"
         rx="101.6995"
         ry="101.69962" /><path
         id="rect2-6-3"
         style="fill:#3dada5;fill-opacity:1;stroke-width:0.315978"
         d="m -196.99468,30.995676 99.026546,20.491211 c 12.484808,2.583437 9.018964,6.745157 8.992994,18.987789 l -0.27958,131.760864 c -0.0255,12.08991 0.433037,12.74385 -8.248334,14.55772 l -99.648016,20.82025 c -12.47693,2.6069 -17.71126,-3.0786 -17.77434,-15.32109 l -0.90074,-174.832265 c -0.0996,-19.328338 19.83118,-16.257613 18.83147,-16.464479 z"
         sodipodi:nodetypes="csssssssc" /><path
         id="rect2-6"
         style="fill:#287069;fill-opacity:1;stroke-width:0.310629"
         d="m -196.39753,31.641653 99.316929,18.909407 c 12.03937,2.292238 8.656554,6.791626 8.631624,19.118602 l -0.26834,132.668588 c -0.0245,12.1732 0.4539,13.03562 -7.916894,14.65802 l -101.122019,19.59914 c -12.03056,2.33172 -11.00009,-13.98423 -11.00009,-26.31123 V 57.574704 c 0,-12.327003 0.31937,-28.22529 12.35879,-25.933051 z"
         sodipodi:nodetypes="sssssssss" /><path
         id="rect2"
         style="fill:#f9f9f9;stroke-width:0.264583"
         d="m -188.52505,45.360434 84.84921,16.058009 c 10.285593,1.946586 7.395536,5.7675 7.374236,16.235661 l -0.22924,112.663006 c -0.021,10.33757 0.41938,11.24079 -6.763636,12.4477 l -85.00804,14.28325 c -10.32348,1.73457 -10.78099,-9.51503 -10.78099,-19.98321 V 67.382975 c 0,-10.468183 0.27285,-23.969128 10.55846,-22.022541 z"
         sodipodi:nodetypes="sssssssss" /><path
         style="fill:#d3a13c;fill-opacity:1;stroke:#ffffff;stroke-width:2.865;stroke-linecap:round;stroke-dasharray:none;stroke-opacity:1"
         d="m -161.75463,44.674154 31.05723,5.877375"
         id="path3" /><path
         style="fill:#000000;fill-opacity:1;stroke:#d3a13c;stroke-width:9.4028;stroke-linecap:round;stroke-dasharray:none;stroke-opacity:1"
         d="m -128.98227,75.187719 17.61901,24.330049"
         id="path2" /><path
         style="fill:#000000;fill-opacity:1;stroke:#d3a13c;stroke-width:10.3899;stroke-linecap:round;stroke-dasharray:none;stroke-opacity:1"
         d="M -82.031826,50.071741 -110.33838,99.79353"
         id="path2-2" /><path
         id="rect3"
         style="fill:#3dada5;fill-opacity:1;stroke-width:3.18379;stroke-linecap:round"
         d="m -173.64501,160.66656 22.8144,-1.58979 c 4.04775,-0.28206 7.33228,2.75731 7.36444,6.81475 l 0.15867,20.02033 c 0.0322,4.05742 -3.2242,7.3134 -7.24835,7.833 l -22.63204,2.92225 c -4.02415,0.5196 -7.51369,-3.96917 -7.5468,-8.14719 l -0.15867,-20.02033 c -0.0322,-4.05744 3.20061,-7.55096 7.24835,-7.83302 z"
         sodipodi:nodetypes="sssssssss" /><path
         id="rect3-7"
         style="fill:#48d1cc;fill-opacity:1;stroke-width:3.18379;stroke-linecap:round"
         d="m -132.98061,155.59539 22.8144,-1.58979 c 4.04774,-0.28206 7.33228,2.75731 7.36443,6.81474 l 0.15867,20.02033 c 0.0322,4.05743 -3.22419,7.31341 -7.24835,7.83301 l -22.63203,2.92225 c -4.02415,0.51959 -7.51369,-3.96918 -7.5468,-8.1472 l -0.15867,-20.02033 c -0.0322,-4.05743 3.20061,-7.55095 7.24835,-7.83301 z"
         sodipodi:nodetypes="sssssssss" /><path
         id="rect3-2"
         style="fill:#3dada5;fill-opacity:1;stroke-width:3.18379;stroke-linecap:round"
         d="m -174.45512,117.28144 23.0138,-0.84665 c 4.05481,-0.14917 7.33228,2.75731 7.36443,6.81474 l 0.15867,20.02034 c 0.0322,4.05742 -2.51704,8.02448 -6.55455,8.42742 l -23.32576,2.32783 c -4.0375,0.40293 -7.51369,-3.96918 -7.5468,-8.1472 l -0.15867,-20.02033 c -0.0322,-4.05743 2.99407,-8.42698 7.04888,-8.57615 z"
         sodipodi:nodetypes="sssssssss" /><path
         id="rect3-2-97"
         style="fill:#48d1cc;fill-opacity:1;stroke-width:3.18379;stroke-linecap:round"
         d="m -172.72275,71.020218 22.07523,2.010269 c 4.04085,0.367978 7.33232,2.75731 7.36447,6.814737 l 0.15867,20.020328 c 0.0322,4.057438 -1.93815,11.370848 -5.99475,11.281478 l -23.88562,-0.52621 c -4.05657,-0.0894 -7.42786,-3.97074 -7.5468,-8.14721 l -0.56673,-19.900119 c -0.18122,-6.363083 4.35469,-11.921249 8.39553,-11.553273 z"
         sodipodi:nodetypes="sssssssss" /><path
         id="rect3-2-9"
         style="fill:#3dada5;fill-opacity:1;stroke-width:3.01015;stroke-linecap:round"
         d="m -132.65731,116.15053 22.12909,-0.78708 c 3.89893,-0.13867 7.0504,2.5633 7.08132,6.33522 l 0.15257,18.61161 c 0.031,3.77192 -1.72848,7.99175 -5.61808,8.2808 l -23.11355,1.71766 c -3.88959,0.28905 -7.22484,-3.68989 -7.25668,-7.57392 l -0.15257,-18.6116 c -0.031,-3.77193 2.87897,-7.83402 6.7779,-7.97269 z"
         sodipodi:nodetypes="sssssssss" /><ellipse
         style="fill:#ffffff;fill-opacity:1;stroke:none;stroke-width:8.54138;stroke-linecap:round;stroke-dasharray:none;stroke-opacity:1"
         id="path4"
         cx="-141.96519"
         cy="217.60829"
         rx="4.744"
         ry="6.1960001" /></g></g></svg>
