<?xml version="1.0" encoding="UTF-8" standalone="no"?>
<!-- Created with Inkscape (http://www.inkscape.org/) -->

<svg
   width="203.399mm"
   height="210.35976mm"
   viewBox="0 0 203.399 210.35976"
   version="1.1"
   id="svg1"
   xml:space="preserve"
   inkscape:version="1.2.2 (b0a8486541, 2022-12-01)"
   sodipodi:docname="appsedu_installed.svg"
   inkscape:export-filename="appsedu_installed128x128.png"
   inkscape:export-xdpi="15.46"
   inkscape:export-ydpi="15.46"
   xmlns:inkscape="http://www.inkscape.org/namespaces/inkscape"
   xmlns:sodipodi="http://sodipodi.sourceforge.net/DTD/sodipodi-0.dtd"
   xmlns="http://www.w3.org/2000/svg"
   xmlns:svg="http://www.w3.org/2000/svg"><sodipodi:namedview
     id="namedview1"
     pagecolor="#ffffff"
     bordercolor="#000000"
     borderopacity="0.25"
     inkscape:showpageshadow="2"
     inkscape:pageopacity="0.0"
     inkscape:pagecheckerboard="0"
     inkscape:deskcolor="#d1d1d1"
     inkscape:document-units="mm"
     inkscape:zoom="0.11692446"
     inkscape:cx="1218.7356"
     inkscape:cy="2206.5528"
     inkscape:window-width="1920"
     inkscape:window-height="1049"
     inkscape:window-x="0"
     inkscape:window-y="0"
     inkscape:window-maximized="1"
     inkscape:current-layer="layer1"
     showgrid="false" /><defs
     id="defs1" /><g
     inkscape:label="Capa 1"
     inkscape:groupmode="layer"
     id="layer1"
     transform="translate(-2.8988333,-36.871147)"><ellipse
       style="fill:#e7e7e7;fill-opacity:1;stroke-width:0.289336"
       id="path1"
       cx="104.59834"
       cy="138.57077"
       rx="101.6995"
       ry="101.69962" /><path
       style="fill:#d3a13c;fill-opacity:1;stroke:#ffffff;stroke-width:2.865;stroke-linecap:round;stroke-dasharray:none;stroke-opacity:1"
       d="m 97.53714,53.669988 31.05723,5.877375"
       id="path3" /><ellipse
       style="fill:#ffffff;fill-opacity:1;stroke:none;stroke-width:8.54138;stroke-linecap:round;stroke-dasharray:none;stroke-opacity:1"
       id="path4"
       cx="117.32658"
       cy="226.60413"
       rx="4.744"
       ry="6.1960001" /><path
       style="color:#232629;fill:#4c8681;fill-opacity:1;stroke:none;stroke-width:11.2307"
       d="m 98.177402,71.416607 v 12.371126 c -7.030478,1.447431 -13.711617,4.240426 -19.697479,8.203675 l -8.774199,-8.773732 -15.880652,15.88057 8.773769,8.774184 c -3.951801,5.98587 -6.722311,12.66701 -8.159563,19.69749 H 42.023986 v 22.46164 h 12.371148 c 1.447439,7.03048 4.240444,13.71163 8.203707,19.69749 l -8.773769,8.7742 15.880652,15.8811 8.774199,-8.77421 c 5.985862,3.95181 12.667001,6.72232 19.697479,8.16 v 12.41529 H 109.40848 V 183.7238 c -12.140712,0 -23.766067,-4.9179 -32.222764,-13.62164 -8.142159,-8.38921 -12.700535,-19.61005 -12.700535,-31.30121 0,-12.14067 4.917896,-23.76602 13.621634,-32.22272 8.389628,-8.142151 19.610464,-12.700504 31.301665,-12.700504 12.14031,0 23.76568,4.917883 32.22239,13.621594 8.14259,8.38964 12.70054,19.61048 12.70054,31.30163 h 22.46163 v -11.23103 h -12.37158 c -1.44744,-7.03048 -4.24044,-13.71162 -8.20371,-19.69749 l 8.7742,-8.774184 -15.88109,-15.88057 -8.7742,8.773732 c -5.98587,-3.951789 -12.66701,-6.722284 -19.69751,-8.159525 V 71.416607 Z m 0,44.922713 v 44.92285 l 33.692368,-22.46122 z m 44.923398,33.69224 v 45.88808 l -18.20633,-18.2059 -7.94059,7.94055 31.76222,31.76175 21.10164,-21.10164 10.66012,-10.66011 -7.94054,-7.94055 -18.20591,18.2059 v -45.88808 z"
       class="ColorScheme-Text"
       id="path4-3" /></g></svg>
