<?xml version="1.0" encoding="utf-8" ?>
<svg xmlns="http://www.w3.org/2000/svg" xmlns:xlink="http://www.w3.org/1999/xlink" width="1755" height="651">
	<path fill="#00C0AD" d="M514.133 304.347C519.618 303.997 525.086 304.905 529.882 307.664Q530.4 307.961 530.902 308.283Q531.404 308.606 531.89 308.953Q532.375 309.3 532.843 309.67Q533.31 310.041 533.759 310.435Q534.207 310.829 534.635 311.244Q535.063 311.66 535.47 312.096Q535.877 312.533 536.262 312.989Q536.646 313.445 537.008 313.92Q537.369 314.395 537.706 314.887Q538.043 315.38 538.355 315.888Q538.667 316.397 538.954 316.92Q539.24 317.444 539.5 317.981Q539.76 318.518 539.992 319.067Q540.225 319.617 540.43 320.177Q540.635 320.737 540.811 321.307Q540.988 321.877 541.136 322.455C542.802 328.911 541.884 336.056 538.374 341.756C534.378 348.245 528.625 351.275 521.485 353.042C515.978 353.412 510.7 352.9 505.787 350.221Q505.262 349.937 504.751 349.627Q504.24 349.317 503.746 348.982Q503.251 348.648 502.774 348.288Q502.297 347.929 501.838 347.547Q501.38 347.164 500.941 346.759Q500.502 346.354 500.083 345.928Q499.665 345.502 499.269 345.055Q498.872 344.609 498.499 344.143Q498.125 343.677 497.775 343.193Q497.425 342.709 497.1 342.209Q496.774 341.708 496.474 341.192Q496.174 340.675 495.9 340.145Q495.627 339.614 495.38 339.07Q495.133 338.527 494.913 337.972Q494.693 337.416 494.502 336.851Q494.31 336.285 494.147 335.711C492.324 329.401 493.008 322.334 496.292 316.613C500.371 309.507 506.503 306.393 514.133 304.347Z"/>
	<path fill="#00C0AD" d="M1532.66 433.856C1536.18 433.454 1539.8 433.442 1543.34 433.288C1544.12 437.179 1543.75 443.337 1541.51 446.724C1538.28 448.488 1531.93 447.875 1528.16 448.096C1487.96 450.448 1478.23 491.588 1471.94 523.703L1464.74 560.507C1463.71 565.749 1463.04 575.03 1459.5 579.014L1444.76 578.989C1445.37 578.408 1445.91 577.796 1446.33 577.06C1448.54 573.209 1450.24 563.22 1449.21 559.023C1449.68 558.446 1450.12 557.836 1450.43 557.155C1453.65 550.066 1456.73 526.78 1458.5 517.798C1463.71 491.437 1470.19 464.865 1474.23 438.323C1474.45 436.822 1474.33 435.702 1473.83 434.286L1488.4 434.294C1488.44 434.416 1488.5 434.533 1488.54 434.658C1489.85 439.279 1484.56 460.087 1481.81 464.173C1485.16 461.836 1488.05 457.172 1490.98 454.182C1504.32 440.586 1514.05 436.987 1532.66 433.856Z"/>
	<path fill="#00C0AD" d="M1206.97 403.875C1211.82 402.79 1216.6 403.056 1221.53 403.243C1221.9 404.097 1222.25 405.057 1222.27 405.995C1222.39 411.874 1219.09 430.329 1215.27 434.287L1261.06 434.276C1261.24 434.704 1261.26 434.708 1261.39 435.116C1262.57 439.073 1261 443.395 1259.18 446.9C1243.73 446.558 1228.22 446.832 1212.76 446.839C1216.35 454.832 1193.35 532.968 1195.24 550.44C1195.83 555.89 1198.11 560.82 1202.52 564.222C1207.74 568.251 1215.1 568.401 1221.4 567.618C1226.89 566.936 1234.95 564.857 1238.51 560.314L1240.54 561.1C1242.45 563.51 1244.56 567.519 1244.21 570.674C1244.04 570.896 1243.87 571.147 1243.68 571.349C1237.45 577.885 1224.02 580.172 1215.5 580.457C1206.37 580.763 1195.92 578.893 1189.09 572.374C1183.66 567.2 1181.04 559.84 1180.49 552.483C1179.31 536.639 1191.97 485.928 1195.89 466.448C1197.11 460.413 1199.34 453.424 1199.09 447.338C1199.08 447.123 1199.06 446.909 1199.05 446.695C1189.93 447.094 1180.73 446.823 1171.61 446.766C1172.03 446.227 1172.42 445.669 1172.75 445.068C1174.47 441.936 1175.33 437.736 1174.37 434.272L1201.02 434.3C1201.65 433.686 1202.23 433.02 1202.54 432.184C1204.5 426.938 1209.08 408.6 1206.97 403.875Z"/>
	<path fill="#00C0AD" d="M1090.69 433.855C1105.97 432.055 1123.78 434.263 1138.09 439.935C1141.66 441.349 1148.03 444.276 1149.62 447.951C1148.15 452.269 1145.65 456.179 1142.16 459.13C1141.88 458.564 1141.54 457.998 1141.09 457.539C1132.8 449.012 1112.05 445.918 1100.74 446.023C1087.48 446.148 1072.49 448.974 1062.89 458.896Q1062.45 459.348 1062.04 459.822Q1061.63 460.296 1061.24 460.79Q1060.85 461.284 1060.48 461.796Q1060.12 462.309 1059.78 462.84Q1059.44 463.37 1059.13 463.917Q1058.82 464.464 1058.54 465.026Q1058.26 465.587 1058 466.163Q1057.75 466.738 1057.52 467.325Q1057.3 467.913 1057.1 468.511Q1056.91 469.109 1056.74 469.715Q1056.58 470.322 1056.45 470.937Q1056.31 471.551 1056.21 472.172Q1056.11 472.792 1056.03 473.417Q1055.96 474.042 1055.92 474.669Q1055.88 475.297 1055.87 475.926Q1055.87 476.555 1055.89 477.183C1056.75 503.86 1113.25 498.608 1131.41 515.51C1137.08 520.785 1139.17 527.439 1139.42 535.034C1139.76 545.281 1136.45 555.703 1129.32 563.251C1115.72 577.657 1094 580.103 1075.24 580.676C1051.22 578.573 1039.73 574.887 1019.32 562.022C1022.96 559.225 1025.85 555.138 1027.38 550.808C1028.92 551.541 1030.35 552.346 1031.75 553.316C1050.8 566.467 1073.4 570.266 1096.11 566.036C1106.38 564.124 1115.38 559.546 1121.35 550.664C1124.6 545.812 1125.82 540.105 1124.63 534.359C1120.07 512.473 1071.26 513.909 1053.66 502.06C1047.77 498.096 1043.64 492.614 1042.35 485.533C1040.48 475.34 1042.81 462.887 1048.83 454.387C1058.39 440.88 1075.24 436.418 1090.69 433.855Z"/>
	<path fill="#00C0AD" d="M510.774 106.486C515.085 106.07 519.468 105.799 523.668 107.081C528.539 108.567 532.924 112.015 535.236 116.604C537.001 120.106 537.034 125.633 537.222 129.492C538.071 146.945 538.769 260.587 536.075 268.056C533.732 274.552 528.852 277.651 522.938 280.414C518.834 280.863 515.025 281.195 510.981 280.043C505.685 278.534 501.425 275.213 498.861 270.317C496.985 266.735 496.904 262.488 496.695 258.533C495.909 243.674 495.567 126.292 497.9 119.163C500.096 112.451 504.838 109.451 510.774 106.486Z"/>
	<path fill="#00C0AD" d="M1617.86 433.857C1633.8 431.786 1652.05 434.336 1665.68 443.23C1677.77 451.126 1685.65 463.78 1688.49 477.847C1690.07 485.639 1691.86 503.129 1687.3 509.931C1646.08 509.41 1604.79 509.899 1563.55 509.911C1564.16 512.013 1563.62 515.415 1563.59 517.647C1563.45 528.604 1564.59 538.135 1570.71 547.517C1577.26 557.537 1588.12 563.522 1599.65 565.907C1610.39 568.13 1632.55 568.917 1642.02 562.702C1643.82 562.353 1645.45 561.763 1647.12 561.012C1652.2 558.715 1662.74 553.447 1664.78 548.036C1665.15 548.276 1665.47 548.502 1665.8 548.786C1668.3 550.88 1671.7 555.155 1672.02 558.468C1671.91 558.85 1671.85 559.128 1671.6 559.451C1664.27 569.238 1646.26 576.071 1634.77 578.398C1614.72 582.456 1591.01 581.225 1573.57 569.517C1561.15 561.177 1553.21 548.689 1550.4 534.048C1546.11 511.651 1551.57 486.092 1564.37 467.286C1577.53 447.963 1595.31 438.182 1617.86 433.857ZM1623.07 445.849C1604.92 448.304 1589.52 455.706 1578.22 470.508C1572.14 478.466 1567.61 494.877 1563.59 499.089L1616.82 499.081L1674.91 499.098C1677.96 492.744 1676.71 481.692 1674.35 475.071C1670.49 464.193 1662.07 455.58 1651.7 450.704C1642.65 446.451 1632.96 445.387 1623.07 445.849Z"/>
	<path fill="#FEFEFE" d="M286.006 146.549C289.984 146.353 293.929 146.757 297.585 148.434C303.137 150.981 306.742 156.427 308.328 162.171C310.514 170.089 309.641 179.339 309.603 187.513C309.506 208.155 306.473 258.656 313.308 276.125C325.622 307.602 353.48 308.231 382.41 308.118L421.35 307.941C429.862 307.903 439.344 307.032 447.308 310.548C451.756 312.512 455.703 315.862 457.413 320.518C459.434 326.018 459.014 332.555 456.456 337.805C453.435 344.004 448.543 346.514 442.346 348.617C425.692 349.535 408.837 349.065 392.158 349.075C376.838 349.085 360.637 350.094 345.488 347.573Q341.652 346.949 337.882 346.008Q334.112 345.066 330.433 343.813Q326.755 342.56 323.194 341.004Q319.633 339.449 316.214 337.601Q315.222 337.066 314.245 336.506Q313.267 335.946 312.303 335.362Q311.339 334.779 310.39 334.171Q309.441 333.563 308.508 332.933Q307.574 332.302 306.657 331.648Q305.739 330.994 304.838 330.317Q303.937 329.641 303.053 328.943Q302.169 328.244 301.303 327.524Q300.436 326.803 299.588 326.062Q298.74 325.32 297.91 324.558Q297.081 323.796 296.27 323.013Q295.46 322.23 294.669 321.428Q293.878 320.625 293.108 319.803Q292.337 318.981 291.587 318.14Q290.837 317.3 290.109 316.441Q289.38 315.581 288.673 314.704Q287.965 313.828 287.28 312.933Q286.595 312.039 285.932 311.128Q285.269 310.217 284.629 309.29Q283.989 308.363 283.372 307.42Q282.755 306.478 282.162 305.52Q281.569 304.562 281 303.59Q280.43 302.618 279.885 301.632Q279.34 300.646 278.82 299.647Q278.3 298.648 277.804 297.636Q277.309 296.624 276.839 295.601Q276.369 294.577 275.924 293.542Q275.48 292.507 275.061 291.461Q274.642 290.415 274.25 289.359Q273.857 288.304 273.491 287.238Q273.124 286.173 272.785 285.099Q272.445 284.025 272.132 282.943Q270.764 278.317 269.91 273.57Q269.056 268.823 268.725 264.011C267.587 247.823 268.574 231.041 268.512 214.775C268.452 199.199 267.259 182.79 268.502 167.332C268.807 163.534 269.512 159.555 271.418 156.209C274.636 150.558 280.076 148.205 286.006 146.549Z"/>
	<path fill="#FEFEFE" d="M81.7905 146.676C86.0157 146.243 90.4803 146.667 94.3785 148.433C99.6728 150.831 103.285 155.918 104.882 161.393C107.203 169.346 106.276 178.562 106.236 186.783C106.134 207.633 103.138 258.597 110.047 276.171C122.364 307.499 150.276 308.234 179.113 308.128L218.207 307.954C226.854 307.916 236.427 307.057 244.514 310.655C248.649 312.495 252.415 315.547 253.974 319.92C255.627 324.554 256.256 331.428 254.201 335.919C251.14 342.609 246.532 345.993 239.793 348.479C225.748 349.781 211.148 349.03 197.041 349.061C179.643 349.098 161.279 350.336 144.089 347.888Q140.561 347.389 137.081 346.619Q133.602 345.85 130.192 344.815Q126.783 343.78 123.463 342.485Q120.143 341.19 116.933 339.644Q115.92 339.156 114.919 338.643Q113.919 338.13 112.931 337.593Q111.943 337.055 110.969 336.494Q109.994 335.932 109.034 335.347Q108.074 334.762 107.129 334.153Q106.183 333.545 105.253 332.913Q104.323 332.281 103.409 331.627Q102.494 330.972 101.596 330.295Q100.698 329.619 99.8175 328.92Q98.9364 328.221 98.0729 327.501Q97.2094 326.781 96.3638 326.04Q95.5183 325.299 94.6912 324.537Q93.8642 323.775 93.0561 322.994Q92.2481 322.212 91.4595 321.41Q90.671 320.609 89.9024 319.788Q89.1338 318.968 88.3857 318.128Q87.6375 317.289 86.9102 316.432Q86.183 315.574 85.477 314.699Q84.7711 313.824 84.0869 312.932Q83.4027 312.04 82.7407 311.131Q82.0787 310.223 81.4393 309.298Q80.7999 308.373 80.1834 307.433Q79.5669 306.493 78.9738 305.538Q78.3806 304.583 77.8112 303.613Q77.2417 302.644 76.6963 301.661Q76.1509 300.678 75.6298 299.682Q75.1088 298.686 74.6124 297.677Q74.1161 296.668 73.6447 295.648Q73.1733 294.627 72.7272 293.595Q72.2811 292.563 71.8605 291.521Q71.4399 290.478 71.0451 289.426Q70.6503 288.373 70.2816 287.311Q68.3098 281.664 67.0856 275.809Q65.8614 269.955 65.4055 263.991C64.1562 249.072 65.1431 233.47 65.0658 218.468C64.9806 201.935 63.8277 184.616 65.1067 168.162C65.3924 164.487 65.9581 160.522 67.6467 157.202C70.6133 151.371 75.8865 148.614 81.7905 146.676Z"/>
	<path fill="#00C0AD" d="M1343.95 433.856Q1345.21 433.697 1346.48 433.598C1365.14 432.105 1385.2 435.185 1399.81 447.71C1411.65 457.86 1417.89 471.997 1418.96 487.409C1420.61 511.356 1413.96 535.178 1398.06 553.437C1384.15 569.399 1365.3 578.343 1344.31 579.841C1328.55 582.462 1309.26 578.534 1296.06 569.471C1283.8 561.051 1276 548.197 1273.36 533.637C1269.35 511.462 1274.66 486.176 1287.61 467.72C1301.93 447.318 1320.1 438.062 1343.95 433.856ZM1347.34 446.706C1328.77 449.126 1313.36 457.127 1301.83 472.153C1289.85 487.76 1284.52 508.563 1287.16 528.053C1288.73 539.667 1294.1 550.559 1303.55 557.724C1314.86 566.297 1328.88 567.651 1342.6 567.117C1360.72 565.773 1375.31 558.27 1387.23 544.535C1399.99 529.841 1406.18 509.131 1404.79 489.819C1403.92 477.638 1399.62 465.968 1390.15 457.867C1377.93 447.403 1362.74 446.192 1347.34 446.706Z"/>
	<path fill="#FEFEFE" d="M601.344 146.611C605.853 146.262 610.833 146.885 614.817 149.128C619.526 151.779 622.569 156.604 623.939 161.732C626.021 169.522 625.153 178.625 625.112 186.655C625.012 206.489 622.292 254.515 627.495 271.716Q627.848 272.908 628.259 274.08Q628.671 275.253 629.139 276.405Q629.607 277.556 630.131 278.683Q630.656 279.81 631.234 280.909Q631.813 282.009 632.446 283.079Q633.078 284.15 633.762 285.187Q634.446 286.225 635.18 287.228Q635.914 288.231 636.696 289.197Q637.479 290.163 638.308 291.089Q639.136 292.016 640.01 292.9Q640.883 293.785 641.799 294.625Q642.715 295.466 643.67 296.261Q644.626 297.056 645.62 297.803Q646.614 298.549 647.643 299.247Q648.672 299.944 649.734 300.59Q650.796 301.236 651.889 301.829C657.888 305.03 664.31 306.742 671.027 307.595C684.745 309.337 748.69 309.03 760.537 305.416C797.486 294.145 796.69 261.804 796.534 230.122L796.315 183.931C796.281 174.985 795.232 163.997 799.711 155.891C802.148 151.48 807.287 148.347 812.064 147.104C817.044 145.808 822.496 146.318 826.926 149.017C832.042 152.134 835.298 157.62 836.662 163.344C838.296 170.204 839.36 198.755 835.942 204.294C836.407 205.04 836.845 205.837 837.073 206.692C838.784 213.1 837.59 222.846 837.498 229.472C837.154 254.216 838.823 276.706 826.854 299.562Q826.331 300.564 825.783 301.554Q825.236 302.543 824.664 303.518Q824.092 304.493 823.496 305.455Q822.9 306.416 822.281 307.362Q821.662 308.308 821.02 309.238Q820.378 310.169 819.713 311.083Q819.048 311.998 818.36 312.896Q817.673 313.794 816.964 314.674Q816.255 315.555 815.524 316.418Q814.793 317.281 814.041 318.126Q813.29 318.97 812.517 319.796Q811.745 320.622 810.953 321.429Q810.16 322.236 809.348 323.023Q808.536 323.81 807.705 324.576Q806.874 325.343 806.024 326.089Q805.175 326.835 804.307 327.56Q803.439 328.285 802.553 328.988Q801.668 329.692 800.765 330.373Q799.863 331.055 798.944 331.714Q798.025 332.372 797.09 333.009Q796.155 333.645 795.204 334.258Q794.254 334.871 793.289 335.46Q792.324 336.049 791.344 336.615Q790.365 337.18 789.372 337.722Q788.379 338.263 787.373 338.779Q786.367 339.296 785.348 339.788Q784.33 340.279 783.3 340.746Q782.269 341.212 781.228 341.653Q780.187 342.094 779.135 342.51Q778.083 342.925 777.021 343.314Q775.959 343.703 774.888 344.066Q773.817 344.429 772.737 344.766Q767.969 346.241 763.068 347.189Q758.168 348.137 753.193 348.547C738.915 349.769 724.174 349.05 709.826 349.029C693.947 349.005 677.238 350.134 661.536 347.636Q657.732 347.04 653.99 346.129Q650.249 345.218 646.597 343.998Q642.945 342.778 639.408 341.257Q635.871 339.736 632.473 337.925Q631.482 337.394 630.504 336.839Q629.526 336.284 628.562 335.705Q627.597 335.126 626.648 334.524Q625.698 333.921 624.764 333.296Q623.83 332.67 622.911 332.022Q621.992 331.373 621.09 330.702Q620.188 330.031 619.302 329.339Q618.416 328.646 617.548 327.931Q616.68 327.217 615.829 326.481Q614.979 325.746 614.147 324.989Q613.315 324.233 612.502 323.456Q611.688 322.68 610.895 321.884Q610.101 321.087 609.327 320.272Q608.553 319.456 607.799 318.622Q607.046 317.787 606.313 316.934Q605.58 316.082 604.868 315.211Q604.157 314.341 603.467 313.453Q602.777 312.565 602.109 311.661Q601.441 310.756 600.795 309.836Q600.15 308.915 599.528 307.979Q598.905 307.043 598.306 306.091Q597.706 305.14 597.131 304.174Q596.555 303.209 596.003 302.229Q595.451 301.25 594.924 300.257Q594.397 299.264 593.894 298.258Q593.391 297.253 592.913 296.235Q592.435 295.217 591.982 294.188Q591.53 293.159 591.103 292.119Q590.675 291.079 590.274 290.029Q589.872 288.979 589.497 287.92Q589.121 286.86 588.772 285.791Q588.423 284.723 588.1 283.646Q586.589 278.732 585.644 273.678Q584.7 268.624 584.333 263.496C583.144 248.207 584.189 232.395 584.08 217.046C583.965 201.003 582.512 183.99 584.019 168.097C584.397 164.119 585.377 160.188 587.31 156.671C590.587 150.704 595.113 148.414 601.344 146.611Z"/>
	<path fill="#FEFEFE" d="M1454.39 146.903C1459.21 146.321 1463.87 145.883 1468.52 147.727C1474.52 150.105 1558.36 218.608 1559.49 221.267C1565.95 218.848 1573.25 211.415 1578.61 207.046L1624.7 169.476C1633.2 162.555 1642.14 153.683 1651.83 148.693C1656.82 146.12 1662.5 145.603 1667.84 147.405C1673.02 149.151 1677.35 153.224 1679.75 158.106C1682.04 162.771 1682.23 167.966 1680.44 172.835C1679.09 176.515 1676.66 179.92 1673.85 182.645C1666.71 189.58 1601.9 241.989 1596.06 244.643C1600.64 246.581 1669.03 302.179 1677.98 310C1680.48 312.188 1682.86 314.592 1684.75 317.342C1687.94 321.987 1689.58 327.752 1688.47 333.359C1687.45 338.514 1684.03 343.075 1679.67 345.944C1673.61 349.943 1666.75 349.309 1660.04 347.884C1650.49 341.618 1641.65 333.607 1632.76 326.408L1584.57 287.362C1576.9 281.147 1568.47 272.855 1559.81 268.227C1559.7 268.645 1559.72 268.699 1559.44 269.119C1557.82 271.575 1474.72 338.534 1467.69 343.538C1464.25 345.991 1460.85 348.201 1456.58 348.848Q1456.05 348.926 1455.52 348.978Q1454.99 349.03 1454.46 349.055Q1453.93 349.08 1453.4 349.079Q1452.87 349.078 1452.33 349.05Q1451.8 349.022 1451.27 348.968Q1450.74 348.914 1450.22 348.834Q1449.69 348.753 1449.17 348.647Q1448.65 348.54 1448.13 348.408Q1447.62 348.276 1447.11 348.118Q1446.6 347.96 1446.1 347.777Q1445.6 347.594 1445.11 347.386Q1444.62 347.179 1444.14 346.947Q1443.66 346.715 1443.2 346.46Q1442.73 346.204 1442.28 345.926Q1441.82 345.648 1441.38 345.347Q1440.94 345.047 1440.52 344.725C1436.03 341.276 1433.71 336.37 1433.15 330.837C1432.69 326.314 1433.55 321.957 1436.07 318.146C1442.43 308.556 1492.91 270.441 1506.16 259.799C1511.68 255.366 1519 250.676 1523.36 245.187C1523.46 245.053 1523.56 244.917 1523.67 244.783C1520.07 236.545 1451.03 191.232 1442.63 175.411C1440.25 170.938 1439.44 165.689 1440.96 160.803C1443.1 153.934 1448.25 150.015 1454.39 146.903Z"/>
	<path fill="#FEFEFE" d="M1252.96 146.902C1274.45 144.952 1301.15 146.525 1323.31 146.503C1343.86 146.482 1372.67 144.877 1392.12 146.955C1396.2 147.39 1399.62 148.313 1402.95 150.841C1407.17 154.043 1409.58 158.77 1410.33 163.958C1411.14 169.509 1410.19 174.764 1406.71 179.289C1404.19 182.58 1400.51 185.36 1396.45 186.403C1386.19 189.04 1373.26 187.664 1362.66 187.642L1293.95 187.478C1281.51 187.441 1268.21 186.431 1255.89 188.021C1237.4 190.407 1225.27 199.277 1216.39 215.449C1214.22 219.395 1213.1 224.036 1210.35 227.592L1327.92 227.635C1342.46 227.692 1358.89 225.816 1373.19 227.781C1377.38 228.356 1381.36 230.046 1384.4 233.034C1388.2 236.764 1390.28 242.065 1390.32 247.363C1390.36 252.971 1388.24 258.611 1384.22 262.575C1381.57 265.192 1378.04 267.064 1374.35 267.66C1362.7 269.543 1341.37 268.057 1328.94 268.061L1225.2 268.058L1210.32 268.105C1213.34 270.735 1215.05 278.171 1216.93 281.91C1220.57 289.157 1228.12 296.285 1235 300.482Q1237.12 301.764 1239.35 302.832Q1241.58 303.9 1243.91 304.743Q1246.24 305.587 1248.63 306.198Q1251.03 306.81 1253.48 307.183C1266.44 309.253 1280.71 308.098 1293.85 308.073L1363.97 307.977C1373.65 307.972 1384.21 307.115 1393.75 308.463C1396.61 308.867 1399.22 309.812 1401.64 311.408C1406.21 314.424 1409.32 319.459 1410.26 324.83C1411.2 330.25 1410.24 335.986 1406.99 340.501C1403.36 345.549 1397.77 347.713 1391.84 348.572C1376.07 350.853 1352.38 348.972 1335.84 348.929L1286.04 349.04C1271.71 349.077 1257.02 349.769 1242.9 346.967Q1240.4 346.465 1237.92 345.824Q1235.45 345.182 1233.02 344.403Q1230.59 343.624 1228.2 342.709Q1225.82 341.795 1223.49 340.748Q1221.16 339.701 1218.89 338.525Q1216.62 337.349 1214.43 336.048Q1212.23 334.747 1210.11 333.324Q1207.99 331.901 1205.95 330.362Q1205.06 329.687 1204.18 328.991Q1203.31 328.295 1202.45 327.578Q1201.59 326.861 1200.75 326.123Q1199.91 325.385 1199.09 324.627Q1198.27 323.869 1197.46 323.091Q1196.66 322.313 1195.88 321.516Q1195.09 320.718 1194.33 319.902Q1193.56 319.086 1192.82 318.251Q1192.08 317.417 1191.35 316.564Q1190.63 315.712 1189.93 314.842Q1189.22 313.972 1188.54 313.086Q1187.86 312.199 1187.2 311.296Q1186.54 310.393 1185.91 309.474Q1185.27 308.555 1184.65 307.621Q1184.04 306.687 1183.45 305.739Q1182.86 304.79 1182.29 303.827Q1181.72 302.864 1181.18 301.887Q1180.63 300.911 1180.11 299.922Q1179.59 298.932 1179.09 297.93Q1178.6 296.928 1178.13 295.915Q1177.65 294.901 1177.21 293.876Q1176.76 292.852 1176.34 291.816Q1175.92 290.781 1175.52 289.735Q1175.12 288.69 1174.75 287.635Q1174.38 286.581 1174.04 285.517Q1173.69 284.454 1173.37 283.382Q1173.05 282.311 1172.76 281.232Q1172.47 280.153 1172.2 279.067Q1171.94 277.981 1171.7 276.889Q1171.46 275.797 1171.24 274.7Q1171.03 273.602 1170.85 272.5Q1170.66 271.398 1170.5 270.291C1166.26 240.538 1169.48 207.487 1188.02 182.976C1204.09 161.744 1226.98 150.459 1252.96 146.902Z"/>
	<path fill="#FEFEFE" d="M894.226 146.902C901.36 145.966 909.144 146.463 916.354 146.465L955.742 146.5L1028.57 146.431C1045.36 146.397 1063.97 144.848 1080.4 148.564C1096.4 152.185 1110.61 161.36 1119.4 175.35C1128.67 190.117 1131.51 210.034 1127.52 226.927C1124.71 238.814 1118.12 252.722 1107.35 259.342C1113.53 261.458 1118.33 267.342 1121.55 272.794C1129.63 286.494 1132.62 317.796 1128.48 333.129C1126.99 338.629 1123.76 343.643 1118.68 346.455C1113.84 349.137 1107.85 349.561 1102.6 347.941C1085.8 342.767 1092.04 332.603 1087.18 323.805C1087.1 323.658 1087.02 323.515 1086.93 323.37C1089.3 319.434 1089.02 311.838 1089 307.253C1088.97 300.307 1085.89 293.428 1080.99 288.569C1075.96 283.58 1069.49 280.626 1062.58 279.332C1046.5 276.317 1027.82 278.006 1011.37 278.008L918.11 278.206C918.384 278.641 918.64 279.085 918.851 279.555C920.795 283.873 919.97 331.017 918.057 336.282C916.33 341.035 912.431 344.899 907.883 347.008Q907.406 347.226 906.918 347.42Q906.431 347.613 905.934 347.782Q905.438 347.951 904.933 348.095Q904.428 348.239 903.917 348.357Q903.406 348.475 902.89 348.568Q902.373 348.66 901.853 348.726Q901.332 348.793 900.809 348.833Q900.286 348.873 899.762 348.887Q899.237 348.9 898.713 348.888Q898.188 348.875 897.665 348.836Q897.142 348.797 896.621 348.732Q896.101 348.667 895.584 348.576Q895.068 348.485 894.556 348.368Q894.045 348.25 893.54 348.108Q893.035 347.965 892.538 347.797Q892.041 347.63 891.553 347.437Q891.079 347.25 890.615 347.039Q890.151 346.828 889.698 346.595Q889.245 346.361 888.805 346.105Q888.364 345.85 887.936 345.572Q887.509 345.295 887.095 344.997Q886.682 344.699 886.284 344.381Q885.886 344.062 885.505 343.725Q885.123 343.387 884.759 343.031Q884.394 342.675 884.048 342.301Q883.702 341.927 883.374 341.537Q883.047 341.147 882.739 340.74Q882.432 340.334 882.145 339.913Q881.858 339.492 881.592 339.057Q881.327 338.623 881.083 338.175Q880.839 337.728 880.618 337.269Q880.396 336.81 880.198 336.341C877.029 328.706 877.726 185.281 878.735 167.127C878.907 164.044 879.186 161.224 880.464 158.354C883.196 152.214 888.307 149.273 894.226 146.902ZM918.175 188.017C920.353 192.294 920.716 230.143 918.916 235.569C918.746 236.082 918.514 236.559 918.251 237.03L1018.24 237.137C1034.1 237.163 1052.01 238.776 1067.65 236.617C1071.55 236.079 1075.86 234.591 1078.72 231.801C1079.38 231.157 1079.87 230.677 1080.03 229.724C1084.18 227.165 1086.47 222.849 1087.59 218.191C1089.17 211.631 1088.62 203.821 1084.93 198.04C1081.49 192.661 1075.75 189.529 1069.64 188.24C1060.57 186.327 1050.11 187.34 1040.83 187.403L996.157 187.645L945.94 187.478C936.95 187.451 927.034 186.743 918.175 188.017Z"/>
</svg>
